<svg width="25" height="24" viewBox="0 0 25 24" fill="none" xmlns="http://www.w3.org/2000/svg">
<path d="M12.6664 2.40002C7.36481 2.40002 3.06641 6.69842 3.06641 12C3.06641 14.1024 3.74321 16.0488 4.89281 17.6304L3.57281 21.1008L7.38161 20.016C8.89601 21.0168 10.7128 21.6 12.6664 21.6C17.968 21.6 22.2664 17.3016 22.2664 12C22.2664 6.69842 17.968 2.40002 12.6664 2.40002ZM17.7688 15.9768L16.7464 16.9992C15.6712 18.0744 12.82 16.8912 10.2928 14.364C7.76321 11.8344 6.63281 8.98322 7.65521 7.90802L8.67761 6.88562C9.05441 6.50882 9.70001 6.50882 10.1296 6.88562L11.6368 8.39282C12.1744 8.93042 11.9584 9.84482 11.26 10.0584C10.7752 10.2216 10.4536 10.7592 10.6144 11.244C10.8832 12.372 12.3352 13.7712 13.4128 14.04C13.8952 14.148 14.4352 13.8792 14.596 13.3944C14.8096 12.696 15.7264 12.48 16.264 13.0176L17.7688 14.5248C18.1456 14.9016 18.1456 15.5472 17.7688 15.9768Z" fill="#1b2062"/>
</svg>
